<svg id="Lag_1" data-name="Lag 1" xmlns="http://www.w3.org/2000/svg" viewBox="0 0 321.45 238.83">
  <defs>
    <style>
      .cls-1 {
        fill: #80A8B4;
        opacity: 0.5;
      }

    </style>
  </defs>
  <path class="cls-1" d="M161.34,127.78c4.94-5,9.56-9.63,14.2-14.28q36-36,72.09-72A31.07,31.07,0,0,1,272.3,32c13.94.72,26.46,12.5,28.07,26.36,1.2,10.42-2,19.22-9.35,26.6q-53.79,53.7-107.53,107.42a30.65,30.65,0,0,1-44,.08q-54.07-54-108.06-108C22.55,75.47,19.91,64.57,24,52.65s12.85-18.9,25.35-20.51c9.94-1.28,18.59,2,25.73,9.09q42.33,42.31,84.65,84.61C160.22,126.35,160.65,127,161.34,127.78Z" />
</svg>
