<svg id="Lag_1" data-name="Lag 1" xmlns="http://www.w3.org/2000/svg" viewBox="0 0 242.88 243.39">
  <defs>
    <style>
      .cls-1 {
        fill: #80A8B4;
      }

    </style>
  </defs>
  <path class="cls-1" d="M236.48,112.83V127.6c-.13.87-.33,1.73-.4,2.61A111.53,111.53,0,0,1,229.2,161a114.06,114.06,0,0,1-29.77,44,115.27,115.27,0,0,1-43.14,25c-2.85.92-5.79,1.57-8.76,2.36V137.07h27.11V105.44h-28c.5-5.51.6-10.81,1.6-15.94a24.63,24.63,0,0,1,4.08-9c3.85-5.5,9.73-7.17,16.13-6.85,4.19.21,8.35,1,12.74,1.48.15-3.12.29-6.24.45-9.35.38-7.08.74-14.15,1.17-21.22.09-1.48-.15-2.33-1.88-2.56-3.76-.49-7.46-1.39-11.22-1.79-8.72-.93-17.41-.76-25.95,1.53-12.41,3.31-22.56,9.9-29.6,20.83-6,9.29-8.82,19.61-9.72,30.52-.34,4.06-.4,8.15-.6,12.47H86.11v31.64h17.78v96.47a6.37,6.37,0,0,1-.94,0c-.44,0-.88-.14-1.32-.22a112.25,112.25,0,0,1-33.76-11.77,113.5,113.5,0,0,1-39.31-34.51,112,112,0,0,1-20.49-52.9A113.35,113.35,0,0,1,9.74,96.93c5.49-25.21,17.91-46.46,37.58-63.15C73.8,11.3,104.56,2.72,138.86,7.4a108.81,108.81,0,0,1,54,23.43Q228,58.94,235.17,103.38C235.68,106.52,236.05,109.68,236.48,112.83Z" />
</svg>
