<svg id="Lag_1" data-name="Lag 1" xmlns="http://www.w3.org/2000/svg" viewBox="0 0 311.59 317.04">
  <defs>
    <style>
      .cls-1 {
        fill: #80A8B4;
      }

    </style>
  </defs>
  <path class="cls-1" d="M153.49,15.34a143.66,143.66,0,0,1,143.72,143.6c.07,79.33-64.42,143.81-143.74,143.7S9.78,238.19,9.87,158.91A143.69,143.69,0,0,1,153.49,15.34Zm-.2,230.26c8.44,0,16.89.09,25.33,0,7.73-.1,15.49-.14,23.09-1.84,19.54-4.35,31.77-16.22,36.4-35.75,1.91-8,2-16.22,2-24.39q.17-24.79,0-49.59c0-7.87-.12-15.76-1.83-23.49C234.21,92,223.23,79.88,204.85,74.69c-7.44-2.11-15.09-2.47-22.73-2.52q-28.77-.19-57.55,0A91.24,91.24,0,0,0,104.8,74c-18,4.09-30,14.77-35.37,32.63-2.28,7.62-2.67,15.5-2.72,23.36q-.19,28.85,0,57.68a90,90,0,0,0,1.81,19.77c4.42,19.35,16.22,31.47,35.58,36.1,7.93,1.9,16,1.94,24.12,2.06C136.57,245.7,144.93,245.6,153.29,245.6Z" />
  <path class="cls-1" d="M81.8,158.88c.26-12.11.45-24.22.8-36.32a42.56,42.56,0,0,1,3.3-16C90,97.14,97.3,91.48,107.22,89.45a86.22,86.22,0,0,1,15.12-1.61c12.81-.3,25.64-.36,38.46-.33,9.63,0,19.27.25,28.9.55,6.5.21,12.85,1.37,18.62,4.57,8,4.45,12.61,11.46,14.61,20.32a72.47,72.47,0,0,1,1.52,15.67q.13,30.23,0,60.46a65.73,65.73,0,0,1-1.91,17.21c-3.47,12.58-11.82,19.9-24.48,22.27a77.6,77.6,0,0,1-13.7,1.28c-20.64.14-41.28.11-61.92,0A63.27,63.27,0,0,1,106,228c-12.51-3.42-19.84-11.68-22.35-24.27-1.7-8.5-1.43-17.15-1.59-25.76-.11-6.37,0-12.73,0-19.1Zm27-.16a44.6,44.6,0,1,0,44.43-44.48A44.57,44.57,0,0,0,108.8,158.72ZM200,122.9a10.41,10.41,0,1,0-10.68-10.07A10.42,10.42,0,0,0,200,122.9Z" />
  <path class="cls-1" d="M124.32,158.74a29.05,29.05,0,1,1,28.91,29.12A29.11,29.11,0,0,1,124.32,158.74Z" />
</svg>
