<svg id="Lag_1" data-name="Lag 1" xmlns="http://www.w3.org/2000/svg" viewBox="0 0 111.34 292.99"><defs><style>.cls-1{fill:none;stroke:#c06e68;stroke-miterlimit:10;stroke-width:1.7px;}</style></defs><path class="cls-1" d="M52.09,253.36c4,.06,8,0,12-.32,2.45-.2,4.87-.46,7.29-.79a21.1,21.1,0,0,0,4.28-1.13,4.64,4.64,0,0,0,3.24-4.37c.06-.85,0-1.71,0-2.56v-97.1h0V51.86c0-1.25,0-2.51,0-3.75s0-1.81,1.55-2.17c1.34-.32,1.5-.66,1.53-2.08s0-2.73,0-4.09a7.09,7.09,0,0,1,.49-3.67,1.23,1.23,0,0,0,.09-.5c0-1.94,0-3.88,0-5.81a1.91,1.91,0,0,0-1.43-1.91,17.15,17.15,0,0,0-2.46-.66,79.61,79.61,0,0,0-10.34-1c-1,0-1.93-.11-2.89-.18a30.17,30.17,0,0,0-5.62,0,61.15,61.15,0,0,1-6.48.26H51.91v0"/><path class="cls-1" d="M52.09,253.36v0c-4.06.06-8.11,0-12.17-.32q-3.66-.3-7.29-.79a20.44,20.44,0,0,1-4.28-1.12,4.66,4.66,0,0,1-3.24-4.38c-.06-.85-.05-1.71-.05-2.56v-97.1h0V51.89c0-1.25,0-2.5,0-3.75S25,46.33,23.5,46c-1.34-.32-1.5-.65-1.53-2.08s0-2.73,0-4.09a7.09,7.09,0,0,0-.49-3.67,1.2,1.2,0,0,1-.08-.5c0-1.94,0-3.87,0-5.8a1.92,1.92,0,0,1,1.43-1.92,17.51,17.51,0,0,1,2.46-.66A79.61,79.61,0,0,1,35.63,26.2c1,0,1.93-.11,2.9-.18a30.15,30.15,0,0,1,5.62,0,60.85,60.85,0,0,0,6.47.25h1.29"/></svg>
